{"title":"Percy Jackson Sea of Monsters 2013 READNFO CAM XViD UNiQUE","uid":8854909,"size":748474707,"categoryP":"video","categoryS":"movies","magnet":"?xt=urn:btih:b737b5b9518c90f1c54267391a15043be43e6ef0&amp;dn=Percy+Jackson+Sea+of+Monsters+2013+READNFO+CAM+XViD+UNiQUE&amp;tr=udp%3A%2F%2Ftracker.openbittorrent.com%3A80&amp;tr=udp%3A%2F%2Fopen.demonii.com%3A1337&amp;tr=udp%3A%2F%2Ftracker.coppersurfer.tk%3A6969&amp;tr=udp%3A%2F%2Fexodus.desync.com%3A6969","seeders":18,"leechers":3,"uploader":"xxxlavalxxx","files":-1,"time":1377627135,"description":" &lt;a href=&quot;\nhttp://www.imdb.com/title/tt1854564/&quot; rel=&quot;nofollow&quot; target=&quot;_NEW&quot;&gt;\nhttp://www.imdb.com/title/tt1854564/&lt;/a&gt;\n\n\nIn order to restore their dying safe haven, the son of Poseidon and his friends embark on a quest to the Sea of Monsters to find the mythical Golden Fleece while trying to stop an ancient evil from rising. \n\n\n\nDirector:\n Thor Freudenthal \n\nWriters:\n Marc Guggenheim (screenplay), Rick Riordan (based upon the novel &quot;Percy Jackson and the Olympians: The Sea of Monsters&quot; written by) \n\nStars:\n Logan Lerman, Alexandra Daddario, Brandon T. Jackson \n\nGenres:\n  Adventure |  Family |  Fantasy \n\nCountry:\n USA \n\nLanguage:\n English \n\n\n\nFormat                                   : AVI\n Format/Info                              : Audio Video Interleave\n File size                                : 710 MiB\n Duration                                 : 1h 41mn\n Overall bit rate                         : 982 Kbps\n Writing application                      : VirtualDubMod 1.5.10.2 (build 2540/release)\n Writing library                          : VirtualDubMod build 2540/release\n\n Video\n ID                                       : 0\n Format                                   : MPEG-4 Visual\n Format profile                           : Advanced Simple@L5\n Format settings, BVOP                    : 2\n Format settings, QPel                    : No\n Format settings, GMC                     : No warppoints\n Format settings, Matrix                  : Default (H.263)\n Muxing mode                              : Packed bitstream\n Codec ID                                 : XVID\n Codec ID/Hint                            : XviD\n Duration                                 : 1h 41mn\n Bit rate                                 : 847 Kbps\n Width                                    : 626 pixels\n Height                                   : 282 pixels\n Display aspect ratio                     : 2.220\n Frame rate                               : 29.970 fps\n Color space                              : YUV\n Chroma subsampling                       : 4:2:0\n Bit depth                                : 8 bits\n Scan type                                : Progressive\n Compression mode                         : Lossy\n Bits/(Pixel*Frame)                       : 0.160\n Stream size                              : 612 MiB (86%)\n Writing library                          : XviD 64\n\n Audio\n ID                                       : 1\n Format                                   : MPEG Audio\n Format version                           : Version 2\n Format profile                           : Layer 3\n Codec ID                                 : 55\n Codec ID/Hint                            : MP3\n Duration                                 : 1h 37mn\n Bit rate mode                            : Constant\n Bit rate                                 : 128 Kbps\n Channel(s)                               : 2 channels\n Sampling rate                            : 24.0 KHz\n Compression mode                         : Lossy\n Stream size                              : 89.5 MiB (13%)\n Alignment                                : Split accross interleaves\n Interleave, duration                     : 34 ms (1.03 video frame)\n Interleave, preload duration             : 500 ms\n Writing library                          : LAME3.99\n\n\n\n Source Used      Percy.Jackson.Im.Bann.des.Zyklopen.2013.German.MD.Ts.XviD-KMOA / KinGofJeffS                  - Thanks\n\n\nReason for READNFO \n\n\n\n This source was a german 3D cam and you can tell its 3D but imho maybe you can use this as a 1st look if you wish but this will be good enough for some\n\n Now lets see how many actually read this or not then whine on like a baby that its in 3D :lol:\n\n\n Cropped,rezised,dropped saturation and more\n\n\n &lt;a href=&quot;\nhttp://bayimg.com/LApHgaAeb&quot; rel=&quot;nofollow&quot; target=&quot;_NEW&quot;&gt;\nhttp://bayimg.com/LApHgaAeb&lt;/a&gt; &lt;a href=&quot;\nhttp://bayimg.com/lapHhaAEB&quot; rel=&quot;nofollow&quot; target=&quot;_NEW&quot;&gt;\nhttp://bayimg.com/lapHhaAEB&lt;/a&gt;","torrent":{"xt":"urn:btih:b737b5b9518c90f1c54267391a15043be43e6ef0","amp;dn":"Percy+Jackson+Sea+of+Monsters+2013+READNFO+CAM+XViD+UNiQUE","amp;tr":["udp%3A%2F%2Ftracker.openbittorrent.com%3A80","udp%3A%2F%2Fopen.demonii.com%3A1337","udp%3A%2F%2Ftracker.coppersurfer.tk%3A6969","udp%3A%2F%2Fexodus.desync.com%3A6969"],"infoHash":"b737b5b9518c90f1c54267391a15043be43e6ef0","infoHashBuffer":{"type":"Buffer","data":[183,55,181,185,81,140,144,241,197,66,103,57,26,21,4,59,228,62,110,240]},"announce":[],"urlList":[]}}